<svg width="17" height="16" viewBox="0 0 17 16" fill="none" xmlns="http://www.w3.org/2000/svg">
<g clip-path="url(#clip0_139_18868)">
<path d="M10.2246 3.41551L9.57931 3.76388L6.99815 5.15739L2.81071 7.41807C2.26199 7.71432 2.03668 8.38508 2.2953 8.95251L2.85094 10.1716C3.10956 10.7391 3.76363 11.009 4.34718 10.7892L8.80043 9.11172L11.5454 8.0777L12.2317 7.81919" stroke="#333333" stroke-width="1.18519"/>
<path d="M4.66846 6.45386L5.43095 8.30264L6.19345 10.1514" stroke="#333333" stroke-width="1.18519"/>
<path d="M9.21484 8.88892L9.21484 12.7408" stroke="#333333" stroke-width="1.18519"/>
<path d="M6.15308 14.8148L9.26419 11.8519L12.2272 14.8148" stroke="#333333" stroke-width="1.18519"/>
<path d="M10.2802 3.58108C10.0157 2.98125 10.2884 2.28065 10.8888 2.01744L12.0393 1.51306C12.6379 1.25064 13.3359 1.52232 13.5996 2.12034L15.4517 6.32064C15.7162 6.92046 15.4435 7.62106 14.8431 7.88427L13.6926 8.38866C13.0941 8.65107 12.396 8.3794 12.1323 7.78138L10.2802 3.58108Z" stroke="#333333" stroke-width="1.18519"/>
</g>
<defs>
<clipPath id="clip0_139_18868">
<rect width="16" height="16" fill="white" transform="translate(0.819824)"/>
</clipPath>
</defs>
</svg>
