<svg width="17" height="16" viewBox="0 0 17 16" fill="none" xmlns="http://www.w3.org/2000/svg">
<path d="M6.72569 8.59256C7.54389 8.59256 8.20717 9.25584 8.20718 10.074V13.037C8.20718 13.8552 7.54389 14.5185 6.72569 14.5185H3.76273C2.94453 14.5185 2.28125 13.8552 2.28125 13.037V10.074C2.28125 9.25584 2.94453 8.59256 3.76273 8.59256H6.72569ZM13.8368 8.59256C14.655 8.59256 15.3183 9.25584 15.3183 10.074V13.037C15.3183 13.8552 14.655 14.5185 13.8368 14.5185H10.8738C10.0556 14.5185 9.39236 13.8552 9.39236 13.037V10.074C9.39236 9.25584 10.0556 8.59256 10.8738 8.59256H13.8368ZM3.76273 9.77774C3.59909 9.77774 3.46644 9.9104 3.46644 10.074V13.037C3.46644 13.2006 3.59909 13.3333 3.76273 13.3333H6.72569C6.88933 13.3333 7.02199 13.2006 7.02199 13.037V10.074C7.02199 9.9104 6.88933 9.77774 6.72569 9.77774H3.76273ZM10.8738 9.77774C10.7102 9.77774 10.5775 9.9104 10.5775 10.074V13.037C10.5775 13.2006 10.7102 13.3333 10.8738 13.3333H13.8368C14.0004 13.3333 14.1331 13.2006 14.1331 13.037V10.074C14.1331 9.9104 14.0004 9.77774 13.8368 9.77774H10.8738ZM6.72569 1.48145C7.54389 1.48145 8.20717 2.14473 8.20718 2.96293V5.92589C8.20718 6.74409 7.54389 7.40737 6.72569 7.40737H3.76273C2.94453 7.40737 2.28125 6.74409 2.28125 5.92589V2.96293C2.28125 2.14473 2.94453 1.48145 3.76273 1.48145H6.72569ZM12.0995 1.65535C12.1913 1.42353 12.5198 1.42342 12.6114 1.65535L13.2841 3.36079C13.3121 3.43158 13.3684 3.48795 13.4392 3.51588L15.1447 4.18833C15.3762 4.28007 15.3761 4.60838 15.1447 4.7002L13.4392 5.37294C13.3684 5.40086 13.3121 5.45728 13.2841 5.52803L12.6114 7.23347C12.5198 7.46538 12.1912 7.46533 12.0995 7.23347L11.4268 5.52803C11.3989 5.45732 11.3427 5.40094 11.272 5.37294L9.56655 4.7002C9.33438 4.60863 9.33438 4.2799 9.56655 4.18833L11.272 3.51588C11.3426 3.48788 11.3989 3.43148 11.4268 3.36079L12.0995 1.65535ZM3.76273 2.66663C3.59909 2.66663 3.46644 2.79929 3.46644 2.96293V5.92589C3.46644 6.08953 3.59909 6.22219 3.76273 6.22219H6.72569C6.88933 6.22219 7.02199 6.08953 7.02199 5.92589V2.96293C7.02199 2.79929 6.88933 2.66663 6.72569 2.66663H3.76273Z" fill="#333333"/>
</svg>
