<svg width="21" height="24" viewBox="0 0 21 24" fill="none" xmlns="http://www.w3.org/2000/svg">
<path d="M8.08984 19.8134V22.5482L10.4895 23.9163L12.8881 22.5482V19.8134L10.4895 18.4453L8.08984 19.8134Z" fill="black"/>
<path d="M10.4895 0L8.08984 1.36737V4.10284L10.4895 5.47096L12.8888 4.10284V1.36737L10.4895 0Z" fill="black"/>
<path d="M16.179 5.97711V8.71296L17.8379 9.65842V14.2545L16.8918 14.7938L12.8877 12.4941V10.5897L10.4888 9.22157L8.83332 10.1655L4.79897 7.84822V5.97711L2.39929 4.60938L0 5.97711V8.71296L1.64564 9.65058V14.2628L0 15.2008V17.9362L2.39929 19.3036L4.79897 17.9362V15.2008L3.12498 14.2467V9.66664L4.07744 9.12403L8.08949 11.4283V13.3252L10.4888 14.6929L12.1367 13.753L16.179 16.0752V17.9362L18.5775 19.304L20.9772 17.9362V15.2008L19.3172 14.2545V9.65842L20.9772 8.71296V5.97711L18.5775 4.60938L16.179 5.97711Z" fill="#E1051B"/>
</svg>
