<svg width="234" height="63" viewBox="0 0 234 63" fill="none" xmlns="http://www.w3.org/2000/svg">
<path d="M133.453 2.28261C133.302 8.3087 133.151 14.3348 132.996 20.5435C134.806 19.9409 136.616 19.3383 138.48 18.7174C143.228 18.1343 147.532 18.4883 151.474 21.3495C155.784 24.9349 157.813 29.1985 158.59 34.6957C159.138 41.782 157.721 48.347 153.223 53.948C149.121 58.4709 143.381 60.3016 137.425 60.6599C134.898 60.7706 132.426 60.6303 129.911 60.375C129.572 60.3413 129.232 60.3076 128.882 60.2729C126.811 60.0313 124.827 59.612 122.805 59.0977C122.316 58.9738 121.827 58.8498 121.322 58.7221C120.952 58.6273 120.581 58.5325 120.199 58.4348C120.201 57.9124 120.203 57.39 120.205 56.8517C120.224 51.9025 120.238 46.9533 120.247 42.0041C120.251 39.4603 120.258 36.9165 120.268 34.3728C120.278 31.913 120.284 29.4532 120.286 26.9933C120.288 26.0599 120.291 25.1265 120.296 24.1931C120.323 18.9347 120.178 13.8656 119.285 8.67391C117.777 8.37261 116.269 8.0713 114.715 7.76087C114.715 7.00761 114.715 6.25435 114.715 5.47826C116.942 5.01973 119.17 4.56473 121.398 4.11293C122.156 3.95889 122.913 3.80391 123.67 3.64794C124.761 3.42332 125.852 3.20217 126.944 2.98166C127.28 2.91176 127.615 2.84186 127.961 2.76984C129.875 2.3873 131.468 2.28261 133.453 2.28261ZM132.539 24.1957C132.48 35.1625 132.596 46.1052 132.996 57.0652C135.59 57.4709 137.133 57.7003 139.448 56.3715C143.005 53.5779 144.583 48.5842 145.336 44.2826C145.457 42.5148 145.462 40.7471 145.479 38.9755C145.499 38.2702 145.499 38.2702 145.519 37.5507C145.557 32.865 144.334 29.0897 141.48 25.3637C140.254 24.142 139.323 23.7693 137.591 23.6339C137.112 23.6404 136.632 23.6469 136.138 23.6535C135.415 23.6579 135.415 23.6579 134.678 23.6624C133.466 23.6584 133.466 23.6584 132.539 24.1957Z" fill="black"/>
<path d="M0.914062 3.19565C16.4486 3.19565 31.983 3.19565 47.9883 3.19565C48.6889 4.59532 48.5008 6.05855 48.4899 7.59324C48.4893 7.93647 48.4887 8.2797 48.488 8.63333C48.4854 9.73111 48.4797 10.8289 48.4739 11.9266C48.4716 12.6703 48.4695 13.4139 48.4676 14.1575C48.4626 15.9818 48.4547 17.8061 48.4453 19.6304C46.8617 19.8564 46.8617 19.8564 45.2461 20.087C45.0543 19.5653 45.0543 19.5653 44.8587 19.033C43.0556 14.3943 41.1604 10.8838 36.5535 8.68472C34.002 7.8093 31.4099 7.85934 28.7358 7.84647C28.1679 7.83499 27.6 7.82352 27.0148 7.81169C25.6269 7.78503 24.2397 7.76831 22.8516 7.76087C22.8569 8.23342 22.8622 8.70598 22.8676 9.19285C22.9174 16.0265 22.6603 22.8463 22.3945 29.6739C23.4807 29.6339 24.5654 29.5851 25.6509 29.5313C26.1069 29.5158 26.1069 29.5158 26.5721 29.5C29.205 29.3582 31.1161 28.723 32.9919 26.8492C34.0218 25.2529 34.5814 23.7106 35.1914 21.913C36.0963 21.913 37.0013 21.913 37.9336 21.913C37.9336 28.2404 37.9336 34.5678 37.9336 41.087C37.0287 41.087 36.1237 41.087 35.1914 41.087C35.0147 40.7074 34.8379 40.3278 34.6558 39.9367C34.4178 39.4406 34.1798 38.9446 33.9346 38.4334C33.7013 37.9409 33.468 37.4483 33.2276 36.9408C32.1608 35.1151 31.2366 34.4441 29.25 33.7826C28.0771 33.6789 26.9115 33.5927 25.7366 33.5258C25.4158 33.5061 25.095 33.4864 24.7645 33.4661C23.9746 33.4178 23.1846 33.3717 22.3945 33.3261C22.5036 35.5183 22.6173 37.7102 22.7348 39.902C22.7741 40.6457 22.8123 41.3895 22.8491 42.1333C22.8371 48.8842 22.8371 48.8842 25.0153 55.0323C26.3179 55.8668 27.3767 56.0669 28.9072 56.2663C29.3997 56.3346 29.8923 56.4028 30.3997 56.4732C30.7744 56.5179 31.1491 56.5626 31.5352 56.6087C31.5352 57.6633 31.5352 58.7178 31.5352 59.8043C21.4302 59.8043 11.3252 59.8043 0.914062 59.8043C0.914062 58.7498 0.914062 57.6952 0.914062 56.6087C1.22277 56.564 1.53148 56.5192 1.84955 56.4732C4.38375 56.0646 4.38375 56.0646 6.62695 54.8967C7.9386 52.9315 8.33869 50.8406 8.51578 48.5161C8.55422 48.0143 8.59266 47.5124 8.63227 46.9953C8.66806 46.4579 8.70385 45.9205 8.74072 45.3668C8.77887 44.8015 8.81702 44.2361 8.85632 43.6537C9.39004 35.0513 9.26498 26.4886 8.76929 17.8899C8.73733 17.2913 8.70537 16.6926 8.67244 16.0758C8.48254 13.1869 8.31036 10.7533 6.85547 8.21739C5.10123 6.7655 3.09628 6.41508 0.914062 5.93478C0.914062 5.03087 0.914062 4.12696 0.914062 3.19565Z" fill="black"/>
<path d="M75.5815 21.3709C79.9869 25.0334 82.7276 29.9817 83.2805 35.7475C83.6181 42.7555 82.9095 48.829 78.1523 54.3261C73.8733 58.7802 69.0335 60.3452 62.9328 60.7013C57.5326 60.7526 52.6748 59.4645 48.4078 56.104C44.0018 51.7567 42.5129 46.1495 42.0469 40.1739C42.0396 33.7976 43.7129 28.2567 47.9883 23.4253C54.9347 16.8755 67.7794 15.9374 75.5815 21.3709ZM57.5859 24.1957C54.0681 31.8943 53.8364 43.6113 56.6719 51.587C57.7829 54.2946 58.9574 56.2362 61.6992 57.5217C63.237 57.7412 64.16 57.6246 65.6125 57.0937C69.351 53.9339 69.9559 48.9054 70.3828 44.2826C70.8059 37.2945 71.0622 28.7721 66.4409 23.0258C65.0613 21.6114 64.7405 21.492 62.7561 21.2568C60.3638 21.3132 58.981 22.2893 57.5859 24.1957Z" fill="black"/>
<path d="M192.06 20.7753C195.553 23.5956 197.74 27.1744 198.809 31.5C199.035 34.6637 199.035 34.6637 199.266 37.8913C190.971 37.8913 182.675 37.8913 174.129 37.8913C175.04 44.2608 175.667 47.8118 180.438 51.8241C183.378 53.8044 187.287 54.1446 190.728 53.7162C192.502 53.2773 193.998 52.4901 195.567 51.5691C196.523 51.1304 196.523 51.1304 197.895 51.587C198.282 52.434 198.282 52.434 198.352 53.413C196.33 57.0085 191.208 59.0076 187.463 60.2234C181.931 61.4542 175.7 60.7936 170.835 57.8178C169.905 57.1531 169.047 56.4496 168.188 55.6957C167.911 55.4667 167.634 55.2378 167.348 55.002C163.211 51.2935 161.711 46.2602 161.234 40.8961C160.98 34.6748 162.91 28.8585 166.845 24.0815C172.899 17.6716 184.585 15.7365 192.06 20.7753ZM176.871 23.7391C175.068 27.2891 174.586 30.1943 174.586 34.2391C178.507 34.2391 182.429 34.2391 186.469 34.2391C186.262 27.8623 186.262 27.8623 183.841 22.0842C181.185 20.4633 178.669 21.3989 176.871 23.7391Z" fill="black"/>
<path d="M230.801 20.087C231.027 25.2845 231.027 25.2845 231.258 30.587C230.353 30.8883 229.448 31.1896 228.516 31.5C228.225 30.8556 228.225 30.8556 227.928 30.1982C226.413 26.9465 225.176 24.4264 222.117 22.3696C220.264 21.7526 218.568 21.6011 216.633 21.913C215.373 22.909 214.605 23.6806 213.891 25.1087C213.588 27.8027 213.588 27.8027 214.846 30.1536C216.144 31.6076 217.55 32.3014 219.346 33.0693C219.955 33.3392 220.563 33.6097 221.171 33.8807C221.479 34.0154 221.787 34.1501 222.104 34.2888C231.014 38.1987 231.014 38.1987 232.682 42.3602C233.701 46.0622 233.596 50.0823 231.768 53.4951C231.6 53.7693 231.431 54.0435 231.258 54.3261C231.013 54.731 230.768 55.1358 230.515 55.553C227.025 58.9474 222.83 60.3368 218.032 60.6033C217.697 60.6219 217.363 60.6406 217.017 60.6599C211.969 60.8695 206.73 60.3068 202.008 58.4348C200.552 56.981 201.104 51.6904 201.065 49.5594C201.065 48.4087 201.072 47.2591 201.094 46.1087C201.848 45.8074 202.602 45.5061 203.379 45.1957C203.711 45.8815 203.711 45.8815 204.05 46.5813C206.044 50.5768 207.857 53.611 211.834 55.8954C214.115 56.408 215.934 56.3936 218.118 55.6386C219.645 54.5987 220.364 53.6867 221.203 52.0435C221.482 50.3695 221.284 49.4986 220.632 47.9348C218.726 45.3789 215.108 44.3115 212.253 43.1734C208.5 41.6705 204.865 40.1262 202.825 36.4326C201.529 33.0226 201.591 29.5086 202.883 26.1109C204.84 22.1573 208.077 20.3402 212.062 18.7174C218.061 16.9471 225.013 18.1991 230.801 20.087Z" fill="black"/>
<path d="M101.461 18.2609C101.687 21.6505 101.687 21.6505 101.918 25.1087C102.286 24.5626 102.653 24.0165 103.032 23.4538C104.8 21.0808 107.058 19.5743 109.688 18.2609C110.734 18.2046 111.782 18.1807 112.83 18.1753C113.394 18.1688 113.958 18.1623 114.54 18.1557C115.968 18.2528 116.726 18.4196 117.914 19.1739C117.642 21.8078 116.648 24.0206 115.6 26.4212C115.428 26.8225 115.256 27.2239 115.078 27.6374C114.655 28.6218 114.229 29.6049 113.801 30.587C113.396 30.4456 113.396 30.4456 112.983 30.3014C108.182 28.6425 108.182 28.6425 103.26 29.303C101.904 29.9584 101.904 29.9584 101.609 30.8766C101.4 32.4024 101.396 33.9168 101.4 35.4535C101.4 35.7937 101.399 36.1339 101.399 36.4843C101.399 37.2046 101.399 37.9248 101.401 38.6451C101.404 39.731 101.401 40.8169 101.398 41.9028C100.945 49.2262 100.945 49.2262 103.289 55.6957C104.933 56.3313 106.588 56.731 108.316 57.0652C108.316 57.9691 108.316 58.873 108.316 59.8043C100.021 59.8043 91.7262 59.8043 83.1797 59.8043C83.1797 58.9004 83.1797 57.9965 83.1797 57.0652C83.466 56.9546 83.7523 56.8439 84.0473 56.73C84.6076 56.5005 84.6076 56.5005 85.1792 56.2663C85.5504 56.118 85.9215 55.9697 86.3039 55.8169C87.4927 55.1225 87.6921 54.6696 88.207 53.413C88.9864 49.3456 88.7492 45.0042 88.7488 40.8765C88.7498 39.7197 88.7581 38.5631 88.7667 37.4062C89.0354 30.8364 89.0354 30.8364 86.9502 24.8234C85.6957 24.0576 84.6346 23.8712 83.1797 23.7391C83.1797 22.9859 83.1797 22.2326 83.1797 21.4565C85.4154 20.9986 87.6516 20.5436 89.8884 20.0912C90.6488 19.937 91.4091 19.782 92.1691 19.6262C93.2635 19.402 94.3584 19.1807 95.4535 18.9599C95.7916 18.89 96.1297 18.8201 96.478 18.7481C98.2038 18.4031 99.6828 18.2609 101.461 18.2609Z" fill="black"/>
</svg>
