<svg width="24" height="24" viewBox="0 0 24 24" fill="none" xmlns="http://www.w3.org/2000/svg">
<path d="M5.8056 7.08717C6.16049 7.44205 6.76271 7.44205 7.12835 7.08717C7.48324 6.72154 7.48324 6.1193 7.12835 5.76443L4.79472 3.42004C4.43984 3.06515 3.83761 3.0544 3.47198 3.40928C3.11709 3.76417 3.11709 4.36639 3.47198 4.73204L5.8056 7.08717Z" fill="black"/>
<path d="M1.0631 10.808C0.557664 10.808 0.127502 11.2382 0.127502 11.7436C0.127502 12.2491 0.557664 12.6792 1.0631 12.6792H4.39685C4.9023 12.6792 5.33246 12.2491 5.33246 11.7436C5.33246 11.2382 4.9023 10.808 4.39685 10.808H1.0631Z" fill="black"/>
<path d="M3.5688 18.6366C3.21391 18.9914 3.21391 19.6044 3.55804 19.9592C3.91293 20.3142 4.5259 20.3249 4.89154 19.97L7.23593 17.6256C7.5908 17.2707 7.5908 16.6686 7.23593 16.3137C6.8918 15.9481 6.26806 15.9481 5.91318 16.3137L3.5688 18.6366Z" fill="black"/>
<path d="M12.742 19.1635C12.742 18.6472 12.3119 18.2171 11.7956 18.2171C11.2902 18.2171 10.86 18.6472 10.86 19.1635V22.4757C10.86 22.9811 11.2902 23.4113 11.7956 23.4113C12.3119 23.4113 12.742 22.9811 12.742 22.4757V19.1635Z" fill="black"/>
<path d="M17.6889 16.2929C17.3232 15.938 16.7102 15.938 16.3553 16.2929C15.9897 16.6585 15.9897 17.2608 16.3553 17.6156L18.7105 19.9707C19.0654 20.3257 19.6675 20.3149 20.0225 19.9707C20.3881 19.6158 20.3881 19.0029 20.0225 18.6373L17.6889 16.2929Z" fill="black"/>
<path d="M22.5282 12.6792C23.0443 12.6792 23.4745 12.2491 23.4745 11.7436C23.4745 11.2382 23.0443 10.808 22.5282 10.808H19.2159C18.7105 10.808 18.2803 11.2382 18.2803 11.7436C18.2803 12.2491 18.7105 12.6792 19.2159 12.6792H22.5282Z" fill="black"/>
<path d="M16.3553 5.87194C15.9897 6.22683 15.9897 6.82905 16.3553 7.19469C16.7102 7.54957 17.3232 7.54957 17.6889 7.19469L20.0225 4.85031C20.3881 4.48468 20.3881 3.88244 20.0225 3.51681C19.6675 3.16192 19.0654 3.16192 18.7105 3.51681L16.3553 5.87194Z" fill="black"/>
<path d="M12.742 1.01086C12.742 0.505418 12.3119 0.0752563 11.7956 0.0752563C11.2902 0.0752563 10.86 0.505418 10.86 1.01086V4.3231C10.86 4.8393 11.2902 5.26946 11.7956 5.26946C12.3119 5.26946 12.742 4.8393 12.742 4.3231V1.01086Z" fill="black"/>
</svg>
