<?xml version="1.0" encoding="utf-8"?>
<svg xmlns="http://www.w3.org/2000/svg" fill="none" height="20" viewBox="0 0 20 20" width="20">
<path d="M16.9419 3.55564C15.6473 2.94991 14.263 2.50969 12.8157 2.25903C12.638 2.58037 12.4304 3.01258 12.2872 3.35641C10.7488 3.12504 9.22445 3.12504 7.7143 3.35641C7.57116 3.01258 7.3588 2.58037 7.17947 2.25903C5.73067 2.50969 4.3448 2.95153 3.05016 3.55885C0.438869 7.50485 -0.269009 11.3529 0.0849304 15.1463C1.81688 16.4396 3.49534 17.2253 5.14548 17.7395C5.55291 17.1787 5.91628 16.5826 6.22931 15.9544C5.63313 15.7279 5.06211 15.4483 4.52256 15.1238C4.6657 15.0177 4.80571 14.9069 4.94098 14.7928C8.23183 16.332 11.8074 16.332 15.0589 14.7928C15.1958 14.9069 15.3358 15.0177 15.4774 15.1238C14.9362 15.4499 14.3637 15.7295 13.7675 15.956C14.0805 16.5826 14.4423 17.1803 14.8513 17.741C16.503 17.2269 18.183 16.4413 19.915 15.1463C20.3303 10.7488 19.2056 6.93608 16.9419 3.55564ZM6.67765 12.8134C5.68977 12.8134 4.87963 11.8911 4.87963 10.7681C4.87963 9.64494 5.67247 8.7211 6.67765 8.7211C7.68285 8.7211 8.49297 9.64332 8.47567 10.7681C8.47723 11.8911 7.68285 12.8134 6.67765 12.8134ZM13.3223 12.8134C12.3344 12.8134 11.5243 11.8911 11.5243 10.7681C11.5243 9.64494 12.3171 8.7211 13.3223 8.7211C14.3275 8.7211 15.1376 9.64332 15.1203 10.7681C15.1203 11.8911 14.3275 12.8134 13.3223 12.8134Z" fill="#5865F2"/>
</svg>