<svg xmlns="http://www.w3.org/2000/svg" xmlns:xlink="http://www.w3.org/1999/xlink" fill="none" version="1.1" width="32" height="32" viewBox="0 0 32 32"><g><g><path d="M30.666633492279054,16.00003349227905Q30.666633492279054,16.36003349227905,30.649033492279052,16.71963349227905Q30.63133349227905,17.07923349227905,30.59603349227905,17.437633492279055Q30.560733492279052,17.795933492279055,30.507933492279054,18.152033492279052Q30.455133492279053,18.508233492279054,30.384833492279054,18.86133349227905Q30.314633492279054,19.214433492279053,30.22713349227905,19.563733492279052Q30.139633492279053,19.912933492279052,30.03513349227905,20.25753349227905Q29.930633492279053,20.602033492279052,29.809333492279052,20.941033492279054Q29.688033492279054,21.280033492279053,29.55023349227905,21.61273349227905Q29.412433492279053,21.94533349227905,29.258533492279053,22.270833492279053Q29.104533492279053,22.596333492279054,28.934833492279054,22.913833492279053Q28.765133492279052,23.231333492279052,28.580033492279053,23.540133492279054Q28.39493349227905,23.84903349227905,28.194833492279052,24.148333492279054Q27.994833492279053,24.447733492279053,27.780333492279052,24.736933492279054Q27.565933492279054,25.02613349227905,27.337533492279054,25.304433492279053Q27.109033492279053,25.582733492279054,26.867233492279052,25.849533492279054Q26.625533492279054,26.116333492279054,26.370933492279054,26.370933492279054Q26.116333492279054,26.625533492279054,25.849533492279054,26.867233492279052Q25.582733492279054,27.109033492279053,25.304433492279053,27.337533492279054Q25.02613349227905,27.565933492279054,24.736933492279054,27.780333492279052Q24.447733492279053,27.994833492279053,24.148333492279054,28.194933492279052Q23.84903349227905,28.39493349227905,23.540133492279054,28.580033492279053Q23.231333492279052,28.765133492279052,22.913833492279053,28.934833492279054Q22.596333492279054,29.104533492279053,22.270833492279053,29.258533492279053Q21.94533349227905,29.412433492279053,21.61273349227905,29.55023349227905Q21.280033492279053,29.688033492279054,20.941033492279054,29.809333492279052Q20.602033492279052,29.930633492279053,20.25753349227905,30.03513349227905Q19.912933492279052,30.139633492279053,19.563733492279052,30.22713349227905Q19.214433492279053,30.314633492279054,18.86133349227905,30.384833492279054Q18.508233492279054,30.455133492279053,18.152033492279052,30.507933492279054Q17.795933492279055,30.560733492279052,17.437633492279055,30.59603349227905Q17.07923349227905,30.63133349227905,16.71963349227905,30.649033492279052Q16.36003349227905,30.666633492279054,16.00003349227905,30.666633492279054Q15.639933492279052,30.666633492279054,15.280333492279052,30.649033492279052Q14.920733492279053,30.63133349227905,14.562433492279053,30.59603349227905Q14.204133492279052,30.560733492279052,13.847933492279052,30.507933492279054Q13.491833492279053,30.455133492279053,13.138673492279052,30.384833492279054Q12.785543492279052,30.314633492279054,12.436293492279052,30.22713349227905Q12.087033492279053,30.139633492279053,11.742493492279053,30.03513349227905Q11.397953492279052,29.930633492279053,11.058953492279052,29.809333492279052Q10.719953492279053,29.688033492279054,10.387313492279052,29.55023349227905Q10.054673492279052,29.412433492279053,9.729193492279052,29.258533492279053Q9.403713492279053,29.104533492279053,9.086183492279051,28.934833492279054Q8.768653492279054,28.765133492279052,8.459823492279053,28.580033492279053Q8.151003492279052,28.39493349227905,7.851633492279053,28.194833492279052Q7.552273492279053,27.994833492279053,7.2630734922790525,27.780333492279052Q6.973883492279053,27.565933492279054,6.695563492279053,27.337533492279054Q6.417243492279052,27.109033492279053,6.150473492279053,26.867233492279052Q5.883693492279052,26.625533492279054,5.629103492279053,26.370933492279054Q5.374513492279053,26.116333492279054,5.132713492279053,25.849533492279054Q4.890923492279053,25.582733492279054,4.662513492279053,25.304433492279053Q4.4341034922790525,25.02613349227905,4.219622492279052,24.736933492279054Q4.0051434922790525,24.447733492279053,3.805112492279053,24.148333492279054Q3.605081492279053,23.84903349227905,3.419980492279053,23.540133492279054Q3.2348796922790526,23.231333492279052,3.065154492279053,22.913833492279053Q2.895430492279053,22.596333492279054,2.741490492279053,22.270833492279053Q2.587550492279053,21.94533349227905,2.4497674922790527,21.61273349227905Q2.3119834922790528,21.280033492279053,2.190683492279053,20.941033492279054Q2.069393492279053,20.602033492279052,1.9648734922790527,20.25753349227905Q1.8603634922790528,19.912933492279052,1.7728734922790528,19.563733492279052Q1.6853934922790528,19.214433492279053,1.6151534922790527,18.86133349227905Q1.5449034922790528,18.508233492279054,1.4920734922790528,18.152033492279052Q1.4392434922790527,17.795933492279055,1.4039534922790526,17.437633492279055Q1.3686634922790528,17.07923349227905,1.3510034922790528,16.71963349227905Q1.3333334922790527,16.36003349227905,1.3333334922790527,16.00003349227905Q1.3333334922790527,15.639933492279052,1.3510034922790528,15.280333492279052Q1.3686634922790528,14.920733492279053,1.4039534922790526,14.562433492279053Q1.4392434922790527,14.204133492279052,1.4920734922790528,13.847933492279052Q1.5449034922790528,13.491833492279053,1.6151534922790527,13.138673492279052Q1.6853934922790528,12.785543492279052,1.7728734922790528,12.436293492279052Q1.8603634922790528,12.087033492279053,1.9648734922790527,11.742493492279053Q2.069393492279053,11.397953492279052,2.190683492279053,11.058953492279052Q2.3119834922790528,10.719953492279053,2.4497674922790527,10.387313492279052Q2.587550492279053,10.054673492279052,2.741490492279053,9.729193492279052Q2.895430492279053,9.403713492279053,3.065154492279053,9.086183492279051Q3.2348796922790526,8.768653492279054,3.4199805922790527,8.459823492279053Q3.605081492279053,8.151003492279052,3.805112492279053,7.851633492279053Q4.0051434922790525,7.552273492279053,4.219622492279052,7.2630734922790525Q4.4341034922790525,6.973883492279053,4.662513492279053,6.695563492279053Q4.890923492279053,6.417243492279052,5.132713492279053,6.150473492279053Q5.374513492279053,5.883693492279052,5.629103492279053,5.629103492279053Q5.883693492279052,5.374513492279053,6.150473492279053,5.132713492279053Q6.417243492279052,4.890923492279053,6.695563492279053,4.662513492279053Q6.973883492279053,4.4341034922790525,7.2630734922790525,4.219622492279052Q7.552273492279053,4.0051434922790525,7.851633492279053,3.805112492279053Q8.151003492279052,3.605081492279053,8.459823492279053,3.419980492279053Q8.768653492279054,3.2348796922790526,9.086183492279051,3.065154492279053Q9.403713492279053,2.895430492279053,9.729193492279052,2.741490492279053Q10.054673492279052,2.587550492279053,10.387313492279052,2.4497674922790527Q10.719953492279053,2.3119834922790528,11.058953492279052,2.190683492279053Q11.397953492279052,2.069393492279053,11.742493492279053,1.9648734922790527Q12.087033492279053,1.8603634922790528,12.436293492279052,1.7728734922790528Q12.785543492279052,1.6853934922790528,13.138673492279052,1.6151534922790527Q13.491833492279053,1.5449034922790528,13.847933492279052,1.4920734922790528Q14.204133492279052,1.4392434922790527,14.562433492279053,1.4039534922790526Q14.920733492279053,1.3686634922790528,15.280333492279052,1.3510034922790528Q15.639933492279052,1.3333334922790527,16.00003349227905,1.3333334922790527Q16.36003349227905,1.3333334922790527,16.71963349227905,1.3510034922790528Q17.07923349227905,1.3686634922790528,17.437633492279055,1.4039534922790526Q17.795933492279055,1.4392434922790527,18.152033492279052,1.4920734922790528Q18.508233492279054,1.5449034922790528,18.86133349227905,1.6151534922790527Q19.214433492279053,1.6853934922790528,19.563733492279052,1.7728734922790528Q19.912933492279052,1.8603634922790528,20.25753349227905,1.9648734922790527Q20.602033492279052,2.069393492279053,20.941033492279054,2.190683492279053Q21.280033492279053,2.3119834922790528,21.61273349227905,2.4497674922790527Q21.94533349227905,2.587550492279053,22.270833492279053,2.741490492279053Q22.596333492279054,2.895430492279053,22.913833492279053,3.065154492279053Q23.231333492279052,3.2348796922790526,23.540133492279054,3.4199805922790527Q23.84903349227905,3.605081492279053,24.148333492279054,3.805112492279053Q24.447733492279053,4.0051434922790525,24.736933492279054,4.219622492279052Q25.02613349227905,4.4341034922790525,25.304433492279053,4.662513492279053Q25.582733492279054,4.890923492279053,25.849533492279054,5.132713492279053Q26.116333492279054,5.374513492279053,26.370933492279054,5.629103492279053Q26.625533492279054,5.883693492279052,26.867233492279052,6.150473492279053Q27.109033492279053,6.417243492279052,27.337533492279054,6.695563492279053Q27.565933492279054,6.973883492279053,27.780333492279052,7.2630734922790525Q27.994833492279053,7.552273492279053,28.194933492279052,7.851633492279053Q28.39493349227905,8.151003492279052,28.580033492279053,8.459823492279053Q28.765133492279052,8.768653492279054,28.934833492279054,9.086183492279051Q29.104533492279053,9.403713492279053,29.258533492279053,9.729193492279052Q29.412433492279053,10.054673492279052,29.55023349227905,10.387313492279052Q29.688033492279054,10.719953492279053,29.809333492279052,11.058953492279052Q29.930633492279053,11.397953492279052,30.03513349227905,11.742493492279053Q30.139633492279053,12.087033492279053,30.22713349227905,12.436293492279052Q30.314633492279054,12.785543492279052,30.384833492279054,13.138673492279052Q30.455133492279053,13.491833492279053,30.507933492279054,13.847933492279052Q30.560733492279052,14.204133492279052,30.59603349227905,14.562433492279053Q30.63133349227905,14.920733492279053,30.649033492279052,15.280333492279052Q30.666633492279054,15.639933492279052,30.666633492279054,16.00003349227905ZM28.666633492279054,16.00003349227905Q28.666633492279054,15.689033492279053,28.651433492279054,15.378433492279052Q28.636133492279054,15.067933492279053,28.605633492279054,14.758433492279053Q28.575233492279054,14.449033492279053,28.529533492279054,14.141433492279052Q28.483933492279053,13.833833492279053,28.423233492279053,13.528833492279052Q28.362633492279052,13.223883492279052,28.287033492279054,12.922253492279053Q28.211533492279052,12.620623492279053,28.121233492279053,12.323063492279053Q28.030933492279054,12.025503492279054,27.926233492279053,11.732733492279053Q27.821433492279052,11.439953492279052,27.702433492279052,11.152673492279053Q27.583433492279053,10.865393492279054,27.450533492279053,10.584303492279052Q27.317533492279054,10.303203492279053,27.171033492279054,10.028973492279054Q27.02443349227905,9.754743492279053,26.86453349227905,9.488033492279053Q26.704733492279054,9.221323492279053,26.53193349227905,8.962773492279052Q26.359233492279053,8.704233492279052,26.17393349227905,8.454473492279053Q25.988733492279053,8.204723492279053,25.791433492279054,7.964353492279053Q25.594233492279052,7.723983492279053,25.385333492279052,7.493583492279052Q25.176533492279052,7.263193492279052,24.956733492279053,7.043313492279053Q24.736833492279054,6.823443492279052,24.506433492279054,6.614623492279053Q24.27603349227905,6.405793492279052,24.035633492279054,6.208533492279052Q23.795333492279052,6.011273492279052,23.545533492279052,5.826033492279053Q23.29573349227905,5.640803492279053,23.037233492279054,5.4680534922790525Q22.778633492279052,5.295293492279052,22.511933492279052,5.135433492279053Q22.245233492279052,4.975573492279053,21.97103349227905,4.828993492279053Q21.69683349227905,4.682413492279053,21.415733492279053,4.549473492279053Q21.134633492279054,4.416523492279053,20.847333492279052,4.297526492279053Q20.560033492279054,4.1785304922790525,20.267233492279054,4.073775492279053Q19.974533492279054,3.9690194922790525,19.67693349227905,3.8787554922790526Q19.379333492279052,3.788492492279053,19.07773349227905,3.712937492279053Q18.77613349227905,3.637383492279053,18.47113349227905,3.576719492279053Q18.16613349227905,3.516056492279053,17.858633492279054,3.4704314922790527Q17.551033492279053,3.4248052922790526,17.241533492279054,3.3943269922790527Q16.932133492279053,3.363848592279053,16.621533492279053,3.3485910922790527Q16.310933492279055,3.3333334922790527,16.00003349227905,3.3333334922790527Q15.689033492279053,3.3333334922790527,15.378433492279052,3.3485910922790527Q15.067933492279053,3.363848592279053,14.758433492279053,3.3943269922790527Q14.449033492279053,3.4248052922790526,14.141433492279052,3.4704314922790527Q13.833833492279053,3.516056492279053,13.528833492279052,3.576719492279053Q13.223883492279052,3.637383492279053,12.922253492279053,3.712937492279053Q12.620623492279053,3.788492492279053,12.323063492279053,3.8787554922790526Q12.025503492279054,3.9690194922790525,11.732733492279053,4.073775492279053Q11.439953492279052,4.1785304922790525,11.152673492279053,4.297526492279053Q10.865393492279054,4.416523492279053,10.584303492279052,4.549473492279053Q10.303203492279053,4.682413492279053,10.028973492279054,4.828993492279053Q9.754743492279053,4.975573492279053,9.488033492279053,5.135433492279053Q9.221323492279053,5.295293492279052,8.962773492279052,5.4680534922790525Q8.704233492279052,5.640803492279053,8.454473492279053,5.826033492279053Q8.204723492279053,6.011273492279052,7.964353492279053,6.208533492279052Q7.723983492279053,6.405803492279053,7.493583492279052,6.614623492279053Q7.263193492279052,6.823443492279052,7.043313492279053,7.043313492279053Q6.823443492279052,7.263193492279052,6.614623492279053,7.493583492279052Q6.405793492279052,7.723983492279053,6.208533492279052,7.964353492279053Q6.011273492279052,8.204723492279053,5.826033492279053,8.454473492279053Q5.640803492279053,8.704233492279052,5.4680534922790525,8.962773492279052Q5.295293492279052,9.221323492279053,5.135433492279053,9.488033492279053Q4.975573492279053,9.754743492279053,4.828993492279053,10.028973492279054Q4.682413492279053,10.303203492279053,4.549473492279053,10.584303492279052Q4.416523492279053,10.865393492279054,4.297526492279053,11.152673492279053Q4.1785304922790525,11.439953492279052,4.073775492279053,11.732723492279053Q3.9690194922790525,12.025503492279054,3.8787554922790526,12.323063492279053Q3.788492492279053,12.620623492279053,3.712937492279053,12.922253492279053Q3.637383492279053,13.223883492279052,3.576719492279053,13.528833492279052Q3.516056492279053,13.833833492279053,3.4704314922790527,14.141433492279052Q3.4248052922790526,14.449033492279053,3.3943269922790527,14.758433492279053Q3.363848592279053,15.067933492279053,3.3485910922790527,15.378433492279052Q3.3333334922790527,15.689033492279053,3.3333334922790527,16.00003349227905Q3.3333334922790527,16.310933492279055,3.3485910922790527,16.621533492279053Q3.363848592279053,16.932133492279053,3.3943269922790527,17.241533492279054Q3.4248052922790526,17.551033492279053,3.4704314922790527,17.858633492279054Q3.516056492279053,18.16613349227905,3.576719492279053,18.47113349227905Q3.637383492279053,18.77613349227905,3.712937492279053,19.07773349227905Q3.788492492279053,19.379333492279052,3.8787554922790526,19.67693349227905Q3.9690194922790525,19.974533492279054,4.073775492279053,20.267233492279054Q4.1785304922790525,20.560033492279054,4.297526492279053,20.847333492279052Q4.416523492279053,21.134633492279054,4.549473492279053,21.415733492279053Q4.682413492279053,21.69683349227905,4.828993492279053,21.97103349227905Q4.975573492279053,22.245233492279052,5.135433492279053,22.511933492279052Q5.295293492279052,22.778633492279052,5.4680534922790525,23.037233492279054Q5.640803492279053,23.29573349227905,5.826033492279053,23.545533492279052Q6.011273492279052,23.795333492279052,6.208533492279052,24.035633492279054Q6.405803492279053,24.27603349227905,6.614623492279053,24.506433492279054Q6.823443492279052,24.736833492279054,7.043313492279053,24.956733492279053Q7.263193492279052,25.176533492279052,7.493583492279052,25.385333492279052Q7.723983492279053,25.594233492279052,7.964353492279053,25.791433492279054Q8.204723492279053,25.988733492279053,8.454473492279053,26.17393349227905Q8.704233492279052,26.359233492279053,8.962773492279052,26.53193349227905Q9.221323492279053,26.704733492279054,9.488033492279053,26.86453349227905Q9.754743492279053,27.02443349227905,10.028973492279054,27.171033492279054Q10.303203492279053,27.317533492279054,10.584303492279052,27.450533492279053Q10.865393492279054,27.583433492279053,11.152673492279053,27.702433492279052Q11.439953492279052,27.821433492279052,11.732723492279053,27.926233492279053Q12.025503492279054,28.030933492279054,12.323063492279053,28.121233492279053Q12.620623492279053,28.211533492279052,12.922253492279053,28.287033492279054Q13.223883492279052,28.362633492279052,13.528833492279052,28.423233492279053Q13.833833492279053,28.483933492279053,14.141433492279052,28.529533492279054Q14.449033492279053,28.575233492279054,14.758433492279053,28.605633492279054Q15.067933492279053,28.636133492279054,15.378433492279052,28.651433492279054Q15.689033492279053,28.666633492279054,16.00003349227905,28.666633492279054Q16.310933492279055,28.666633492279054,16.621533492279053,28.651433492279054Q16.932133492279053,28.636133492279054,17.241533492279054,28.605633492279054Q17.551033492279053,28.575233492279054,17.858633492279054,28.529533492279054Q18.16613349227905,28.483933492279053,18.47113349227905,28.423233492279053Q18.77613349227905,28.362633492279052,19.07773349227905,28.287033492279054Q19.379333492279052,28.211533492279052,19.67693349227905,28.121233492279053Q19.974533492279054,28.030933492279054,20.267233492279054,27.926233492279053Q20.560033492279054,27.821433492279052,20.847333492279052,27.702433492279052Q21.134633492279054,27.583433492279053,21.415733492279053,27.450533492279053Q21.69683349227905,27.317533492279054,21.97103349227905,27.171033492279054Q22.245233492279052,27.02443349227905,22.511933492279052,26.86453349227905Q22.778633492279052,26.704733492279054,23.037233492279054,26.53193349227905Q23.29573349227905,26.359233492279053,23.545533492279052,26.17393349227905Q23.795333492279052,25.988733492279053,24.035633492279054,25.791433492279054Q24.27603349227905,25.594233492279052,24.506433492279054,25.385333492279052Q24.736833492279054,25.176533492279052,24.956733492279053,24.956733492279053Q25.176533492279052,24.736833492279054,25.385333492279052,24.506433492279054Q25.594233492279052,24.27603349227905,25.791433492279054,24.035633492279054Q25.988733492279053,23.795333492279052,26.17393349227905,23.545533492279052Q26.359233492279053,23.29573349227905,26.53193349227905,23.037233492279054Q26.704733492279054,22.778633492279052,26.86453349227905,22.511933492279052Q27.02443349227905,22.245233492279052,27.171033492279054,21.97103349227905Q27.317533492279054,21.69683349227905,27.450533492279053,21.415733492279053Q27.583433492279053,21.134633492279054,27.702433492279052,20.847333492279052Q27.821433492279052,20.560033492279054,27.926233492279053,20.267233492279054Q28.030933492279054,19.974533492279054,28.121233492279053,19.67693349227905Q28.211533492279052,19.379333492279052,28.287033492279054,19.07773349227905Q28.362633492279052,18.77613349227905,28.423233492279053,18.47113349227905Q28.483933492279053,18.16613349227905,28.529533492279054,17.858633492279054Q28.575233492279054,17.551033492279053,28.605633492279054,17.241533492279054Q28.636133492279054,16.932133492279053,28.651433492279054,16.621533492279053Q28.666633492279054,16.310933492279055,28.666633492279054,16.00003349227905Z" fill="#111133" fill-opacity="1"/></g><g><path d="M10.666666984558105 12.666666984558105C10.666666984558105 11.562097484896519 11.562097484896519 10.666666984558105 12.666666984558105 10.666666984558105L19.33333396911621 10.666666984558105C20.437903468777797 10.666666984558105 21.33333396911621 11.562097484896519 21.33333396911621 12.666666984558105L21.33333396911621 19.33333396911621C21.33333396911621 20.437903468777797 20.437903468777797 21.33333396911621 19.33333396911621 21.33333396911621L12.666666984558105 21.33333396911621C11.562097484896519 21.33333396911621 10.666666984558105 20.437903468777797 10.666666984558105 19.33333396911621Z" fill="#111133" fill-opacity="1"/></g></g></svg>